<?xml version="1.0" encoding="UTF-8" standalone="no"?>
<!DOCTYPE svg PUBLIC "-//W3C//DTD SVG 1.1//EN" "http://www.w3.org/Graphics/SVG/1.1/DTD/svg11.dtd">
<svg xmlns="http://www.w3.org/2000/svg" xmlns:xl="http://www.w3.org/1999/xlink" version="1.1" viewBox="-96 209 204 48" width="17pc" height="4pc" xmlns:dc="http://purl.org/dc/elements/1.1/">
  <metadata> Produced by OmniGraffle 7.5 
    <dc:date>2017-10-12 21:04:19 +0000</dc:date>
  </metadata>
  <defs/>
  <g stroke="none" stroke-opacity="1" stroke-dasharray="none" fill="none" fill-opacity="1">
    <title>48 pt text &gt; shapes</title>
    <g>
      <title>33% Gray (#AAA)</title>
      <path d="M -85.6295 216.924 C -83.9015 216.924 -82.7975 215.244 -82.7975 214.14 C -82.7975 212.94 -83.8055 211.74 -85.7255 211.74 C -87.2135 211.74 -88.4135 213.036 -88.4135 214.332 C -88.4135 215.532 -87.5495 216.924 -85.6295 216.924 Z M -86.5415 229.26 C -85.7255 227.004 -85.1015 225.228 -85.1015 224.268 C -85.1015 223.308 -85.6775 222.732 -86.8295 222.732 C -91.0535 222.732 -95.3735 228.3 -95.6615 228.588 C -95.7575 228.78 -95.6615 228.876 -95.4695 229.02 L -94.9895 229.452 C -94.7975 229.644 -94.6055 229.644 -94.4135 229.452 C -93.7415 228.684 -91.5335 226.188 -90.7655 226.188 C -90.3815 226.188 -90.1895 226.38 -90.1895 226.764 C -90.1895 227.34 -90.4775 228.252 -90.9575 229.548 L -92.3015 233.292 C -94.2215 238.62 -94.9895 240.876 -94.9895 241.836 C -94.9895 242.604 -94.6055 243.18 -93.5975 243.18 C -88.3655 243.18 -85.0055 238.572 -84.7175 238.188 C -84.5255 237.996 -84.6215 237.9 -84.8135 237.708 L -85.3415 237.18 C -85.4855 237.036 -85.6775 237.036 -85.7735 237.228 C -86.0615 237.612 -88.5575 240.204 -89.5175 240.3 C -89.9015 240.3 -90.0935 240.012 -90.0935 239.628 C -90.0935 239.148 -89.9015 238.38 -89.2295 236.556 Z" fill="#b9b9b9"/>
      <path d="M -75.8855 237.996 C -75.1175 236.076 -74.2535 234.636 -73.2935 233.1 C -71.2775 229.836 -67.2455 225.996 -65.8055 225.996 C -65.1335 225.996 -64.7015 226.38 -64.7015 227.148 C -64.7015 227.724 -66.0455 231.372 -66.7655 233.388 C -68.3015 237.612 -69.6455 240.876 -69.6455 241.74 C -69.6455 242.604 -69.0695 243.18 -68.0135 243.18 C -63.9815 243.18 -60.6215 239.82 -60.0455 239.052 C -59.8535 238.764 -59.8535 238.572 -60.0455 238.476 L -60.5255 238.092 C -60.7175 237.9 -60.9095 237.9 -61.1015 237.996 C -61.5815 238.668 -63.4055 240.3 -64.0775 240.3 C -64.4615 240.3 -64.6535 240.012 -64.6535 239.532 C -64.6535 238.86 -63.9815 237.036 -62.7335 233.868 C -60.7655 228.924 -60.1415 226.668 -60.1415 225.42 C -60.1415 224.076 -61.1015 222.732 -62.8775 222.732 C -67.4375 222.732 -71.8535 228.78 -73.2935 230.988 L -73.5815 230.796 C -72.7175 228.684 -71.3255 225.42 -71.3255 224.364 C -71.3255 223.692 -71.7575 222.732 -73.1495 222.732 C -77.5175 222.732 -80.6855 226.38 -81.3575 227.244 C -81.5495 227.436 -81.4535 227.628 -81.2615 227.724 L -80.7335 228.252 C -80.5895 228.396 -80.3975 228.396 -80.3015 228.204 C -79.5335 227.436 -77.6615 225.708 -76.7975 225.708 C -76.3655 225.708 -76.0775 225.996 -76.0775 226.476 C -76.0775 227.148 -77.2295 230.124 -78.2855 233.196 L -81.5495 242.076 C -81.6455 242.364 -81.5975 242.7 -81.1655 242.7 L -78.0935 242.7 C -77.6135 242.7 -77.5175 242.604 -77.4215 242.412 Z" fill="#b9b9b9"/>
      <path d="M -46.3655 223.788 C -44.9255 218.652 -43.3895 211.692 -39.6455 211.692 C -38.3975 211.692 -38.0135 212.604 -37.9175 213.084 C -37.7255 214.332 -37.1495 215.292 -35.3255 215.292 C -34.1735 215.292 -33.1175 214.332 -33.1175 212.988 C -33.1175 211.548 -34.6535 209.82 -38.2055 209.82 C -41.2775 209.82 -44.2535 211.74 -45.5015 213.18 C -48.7655 216.732 -49.5335 219.996 -50.9735 223.788 L -55.0055 223.788 C -55.3895 223.788 -55.4855 223.98 -55.5815 224.268 L -55.8215 225.42 C -55.8695 225.708 -55.7735 225.9 -55.4855 225.9 L -51.3575 225.9 L -55.6775 242.124 C -57.9815 250.908 -60.2855 254.94 -62.4935 254.94 C -63.0695 254.94 -63.3575 254.652 -63.4535 254.172 C -63.5495 252.924 -64.3175 251.676 -65.8535 251.676 C -67.1975 251.676 -68.0615 252.732 -68.0615 253.98 C -68.0615 255.708 -66.5255 256.956 -64.0295 256.956 C -58.4135 256.956 -54.5735 250.716 -51.9335 243.468 C -49.9175 237.9 -47.8055 229.644 -46.7495 225.9 L -41.9495 225.9 C -41.5655 225.9 -41.4695 225.804 -41.4215 225.516 L -41.1815 224.268 C -41.0855 223.98 -41.1815 223.788 -41.4695 223.788 Z" fill="#b9b9b9"/>
      <path d="M -35.8535 243.18 C -32.9735 243.18 -30.7655 242.124 -28.9415 240.012 C -26.0615 236.844 -24.8135 231.852 -24.8135 228.78 C -24.8135 224.46 -27.9815 222.732 -30.7655 222.732 C -33.3575 222.732 -35.6615 223.692 -37.5815 225.804 C -40.2695 228.732 -41.6135 232.572 -41.6135 236.604 C -41.6135 241.02 -38.6855 243.18 -35.8535 243.18 Z M -36.5255 240.588 C -37.5815 240.588 -38.5415 239.628 -38.5415 238.332 C -38.5415 236.412 -37.5815 233.532 -35.9975 230.844 C -33.6455 226.908 -31.8215 225.228 -29.8535 225.228 C -28.4615 225.228 -27.7895 226.332 -27.7895 227.388 C -27.7895 229.116 -29.2775 233.1 -31.0535 236.124 C -32.9255 239.244 -34.6535 240.588 -36.5255 240.588 Z" fill="#b9b9b9"/>
      <path d="M -12.1895 225.9 L -7.1975 225.9 C -6.9095 225.9 -6.7655 225.852 -6.7175 225.66 L -6.3335 224.268 C -6.2375 223.98 -6.3335 223.788 -6.5255 223.788 L -11.4695 223.788 L -8.3495 217.452 C -8.1575 216.972 -8.3495 216.492 -8.6375 216.492 C -8.8295 216.492 -9.1175 216.684 -9.4055 216.78 C -9.7895 217.068 -11.7095 217.932 -12.6695 218.028 C -13.5335 218.124 -13.7255 218.22 -13.9175 218.7 L -15.8855 223.788 L -19.5815 223.788 C -19.8695 223.788 -19.9655 223.884 -20.0615 224.172 L -20.4455 225.42 C -20.5415 225.804 -20.4455 225.9 -20.1575 225.9 L -16.6055 225.9 L -21.6935 239.052 C -21.9815 239.916 -22.1735 240.876 -22.1735 241.74 C -22.1735 242.412 -21.5975 243.18 -20.1575 243.18 C -15.8375 243.18 -11.5175 239.148 -10.9415 238.38 C -10.8455 238.188 -10.8455 238.092 -11.0375 237.996 L -11.5655 237.42 C -11.7575 237.228 -11.8535 237.228 -12.0455 237.42 C -12.3335 237.708 -15.3095 240.108 -16.4135 240.108 C -16.9895 240.108 -17.2775 239.724 -17.2775 239.244 C -17.2775 238.668 -16.7975 237.516 -16.4135 236.46 Z" fill="#b9b9b9"/>
      <path d="M 5.0905 237.42 C 4.9945 237.324 4.8025 237.42 4.7065 237.516 C 3.6505 238.956 1.7305 240.396 -.4775 240.396 C -1.8215 240.396 -3.0695 239.244 -3.0695 237.324 C -3.0695 235.596 -2.7815 234.252 -2.5895 233.772 C -.7655 233.676 1.8265 233.1 4.4185 231.756 C 7.2025 230.22 8.8345 228.012 8.8345 225.564 C 8.8345 224.172 7.6825 222.732 5.4745 222.732 C 2.8825 222.732 .1945 223.98 -1.7255 225.708 C -5.6615 229.26 -7.6775 234.348 -7.6775 238.092 C -7.6775 241.452 -5.7575 243.18 -2.5895 243.18 C 1.6345 243.18 4.8985 240.108 5.9545 238.38 C 6.0505 238.188 6.0505 238.092 5.8105 237.948 Z M 3.1705 225.036 C 4.2265 225.036 4.6105 225.9 4.6105 226.764 C 4.6105 228.108 3.6505 229.548 2.5945 230.412 C .9625 231.66 -1.3415 232.236 -2.2055 232.236 C -1.6295 229.644 .7705 225.036 3.1705 225.036 Z" fill="#b9b9b9"/>
      <path d="M 20.4505 240.588 C 20.9305 242.316 21.6985 243.18 23.2345 243.18 C 26.8825 243.18 29.1865 238.668 29.7625 237.612 C 29.8585 237.42 29.7625 237.228 29.5705 237.132 L 28.8985 236.844 C 28.7065 236.748 28.5145 236.748 28.5145 236.94 C 28.2265 237.516 26.4025 240.204 25.6345 240.204 C 25.1545 240.204 24.6265 239.724 24.3865 238.86 L 22.3225 232.044 C 24.5785 229.164 27.1705 226.092 28.2265 226.092 C 29.0905 226.092 29.0905 227.052 28.4185 229.452 C 28.4185 229.644 28.5145 229.74 28.8025 229.836 L 29.4265 230.028 C 29.6185 230.124 29.8105 230.028 29.9065 229.836 C 30.5785 228.204 31.1545 225.804 31.1545 224.46 C 31.1545 223.5 30.5785 222.732 29.5225 222.732 C 27.8425 222.732 26.7865 223.788 26.0185 224.556 C 25.0585 225.612 23.3785 228.012 21.8905 230.172 L 21.6985 230.172 L 20.5465 225.516 C 20.0185 223.5 19.2985 222.732 18.0505 222.732 C 14.4025 222.732 11.6185 228.588 11.4265 229.164 C 11.4265 229.356 11.4265 229.548 11.5225 229.596 L 12.2905 229.932 C 12.4825 230.028 12.6745 229.932 12.7705 229.74 C 13.8265 227.82 14.8825 226.188 15.6985 226.188 C 16.0345 226.188 16.3705 226.38 16.6105 227.244 L 18.5305 233.436 C 16.4185 236.076 13.0585 239.916 12.0025 239.916 C 11.4265 239.916 10.8505 239.436 11.6185 236.844 C 11.6185 236.652 11.6185 236.46 11.4265 236.46 L 10.6585 236.268 C 10.3705 236.172 10.2745 236.268 10.1785 236.46 C 9.6985 237.612 9.1225 240.3 9.1225 241.356 C 9.1225 242.604 9.8905 243.18 11.0425 243.18 C 13.4425 243.18 16.4665 238.764 18.8185 235.404 L 19.0105 235.404 Z" fill="#b9b9b9"/>
      <path d="M 42.6745 225.9 L 47.6665 225.9 C 47.9545 225.9 48.0985 225.852 48.1465 225.66 L 48.5305 224.268 C 48.6265 223.98 48.5305 223.788 48.3385 223.788 L 43.3945 223.788 L 46.5145 217.452 C 46.7065 216.972 46.5145 216.492 46.2265 216.492 C 46.0345 216.492 45.7465 216.684 45.4585 216.78 C 45.0745 217.068 43.1545 217.932 42.1945 218.028 C 41.3305 218.124 41.1385 218.22 40.9465 218.7 L 38.9785 223.788 L 35.2825 223.788 C 34.9945 223.788 34.8985 223.884 34.8025 224.172 L 34.4185 225.42 C 34.3225 225.804 34.4185 225.9 34.7065 225.9 L 38.2585 225.9 L 33.1705 239.052 C 32.8825 239.916 32.6905 240.876 32.6905 241.74 C 32.6905 242.412 33.2665 243.18 34.7065 243.18 C 39.0265 243.18 43.3465 239.148 43.9225 238.38 C 44.0185 238.188 44.0185 238.092 43.8265 237.996 L 43.2985 237.42 C 43.1065 237.228 43.0105 237.228 42.8185 237.42 C 42.5305 237.708 39.5545 240.108 38.4505 240.108 C 37.8745 240.108 37.5865 239.724 37.5865 239.244 C 37.5865 238.668 38.0665 237.516 38.4505 236.46 Z" fill="#b9b9b9"/>
      <path d="M 64.4185 227.82 C 63.7945 229.644 63.0745 230.892 62.2105 232.236 C 60.9625 234.252 56.2585 239.916 54.6265 239.916 C 54.2425 239.916 53.8585 239.628 53.8585 239.148 C 53.8585 238.188 54.9145 235.596 56.1145 232.764 C 57.9385 228.444 58.8505 225.9 58.8505 224.748 C 58.8505 223.788 58.1785 222.732 56.8345 222.732 C 52.7545 222.732 49.6345 226.476 48.8665 227.34 C 48.7705 227.532 48.7705 227.628 48.8665 227.724 L 49.3945 228.204 C 49.5385 228.396 49.8265 228.396 49.9225 228.204 C 50.7865 227.244 52.6105 225.612 53.3785 225.612 C 53.8585 225.612 54.2425 225.9 54.2425 226.38 C 54.2425 227.052 53.5225 229.308 52.1785 232.284 C 50.2105 236.652 49.0585 239.148 49.0585 240.972 C 49.0585 241.932 50.1145 243.18 51.2665 243.18 C 55.9705 243.18 60.5785 236.748 62.4985 234.012 L 62.8345 234.204 C 62.3065 235.596 60.1945 241.068 60.1945 241.74 C 60.1945 242.604 60.7705 243.18 61.7305 243.18 C 65.7625 243.18 69.2185 239.148 69.6985 238.38 C 69.7945 238.188 69.7945 237.996 69.6985 237.9 L 69.1225 237.468 C 68.9305 237.324 68.7385 237.324 68.6425 237.516 C 67.9705 238.38 66.1465 240.204 65.4745 240.204 C 65.1865 240.204 64.9945 240.108 64.9945 239.628 C 64.9945 239.34 65.5705 237.42 66.9145 233.58 L 70.2745 223.788 C 70.3705 223.404 70.2745 223.212 69.7945 223.212 L 66.5305 223.212 C 66.2425 223.212 65.9545 223.212 65.8585 223.5 Z" fill="#b9b9b9"/>
      <path d="M 76.8025 242.7 C 77.0905 242.7 77.2825 242.604 77.3785 242.412 L 79.0105 237.516 C 79.5385 235.884 80.0665 234.636 80.5465 233.58 C 81.9865 230.796 84.6745 226.86 86.0185 226.86 C 86.6905 226.86 86.9785 227.148 87.3625 227.436 C 87.7465 227.724 88.2265 227.82 88.8025 227.82 C 89.6665 227.82 90.8185 226.572 90.8185 225.132 C 90.8185 223.692 89.6665 222.732 88.3225 222.732 C 85.1545 222.732 81.7465 228.588 80.4985 231.276 L 80.1625 231.084 C 81.2185 227.916 82.0825 225.42 82.0825 224.556 C 82.0825 223.692 81.6025 222.732 80.1625 222.732 C 76.2265 222.732 73.4425 226.188 72.5785 227.628 C 72.4825 227.82 72.4825 228.012 72.5785 228.108 L 73.1545 228.492 C 73.3465 228.588 73.5385 228.588 73.6345 228.396 C 74.3065 227.436 76.2265 225.612 77.0905 225.612 C 77.5705 225.612 77.9545 225.996 77.9545 226.38 C 77.9545 227.244 76.3705 232.14 75.6505 234.54 L 73.2505 242.316 C 73.1545 242.508 73.3465 242.7 73.6345 242.7 Z" fill="#b9b9b9"/>
      <path d="M 103.4425 237.42 C 103.3465 237.324 103.1545 237.42 103.0585 237.516 C 102.0025 238.956 100.0825 240.396 97.8745 240.396 C 96.5305 240.396 95.2825 239.244 95.2825 237.324 C 95.2825 235.596 95.5705 234.252 95.7625 233.772 C 97.5865 233.676 100.1785 233.1 102.7705 231.756 C 105.5545 230.22 107.1865 228.012 107.1865 225.564 C 107.1865 224.172 106.0345 222.732 103.8265 222.732 C 101.2345 222.732 98.5465 223.98 96.6265 225.708 C 92.6905 229.26 90.6745 234.348 90.6745 238.092 C 90.6745 241.452 92.5945 243.18 95.7625 243.18 C 99.9865 243.18 103.2505 240.108 104.3065 238.38 C 104.4025 238.188 104.4025 238.092 104.1625 237.948 Z M 101.5225 225.036 C 102.5785 225.036 102.9625 225.9 102.9625 226.764 C 102.9625 228.108 102.0025 229.548 100.9465 230.412 C 99.3145 231.66 97.0105 232.236 96.1465 232.236 C 96.7225 229.644 99.1225 225.036 101.5225 225.036 Z" fill="#b9b9b9"/>
    </g>
  </g>
</svg>
