<?xml version="1.0" encoding="UTF-8" standalone="no"?>
<!DOCTYPE svg PUBLIC "-//W3C//DTD SVG 1.1//EN" "http://www.w3.org/Graphics/SVG/1.1/DTD/svg11.dtd">
<svg xmlns="http://www.w3.org/2000/svg" xmlns:xl="http://www.w3.org/1999/xlink" version="1.1" viewBox="-71 209 153 36" width="153pt" height="3pc" xmlns:dc="http://purl.org/dc/elements/1.1/">
  <metadata> Produced by OmniGraffle 7.5 
    <dc:date>2017-10-12 21:38:31 +0000</dc:date>
  </metadata>
  <defs/>
  <g stroke="none" stroke-opacity="1" stroke-dasharray="none" fill="none" fill-opacity="1">
    <title>36 pt text → shapes</title>
    <g>
      <title>33% Gray (#AAA)</title>
      <path d="M -63.0815 214.568 C -61.7855 214.568 -60.9575 213.308 -60.9575 212.48 C -60.9575 211.58 -61.7135 210.68 -63.1535 210.68 C -64.2695 210.68 -65.1695 211.652 -65.1695 212.624 C -65.1695 213.524 -64.5215 214.568 -63.0815 214.568 Z M -63.7655 223.82 C -63.1535 222.128 -62.6855 220.796 -62.6855 220.076 C -62.6855 219.356 -63.1175 218.924 -63.9815 218.924 C -67.1495 218.924 -70.3895 223.1 -70.6055 223.316 C -70.6775 223.46 -70.6055 223.532 -70.4615 223.64 L -70.1015 223.964 C -69.9575 224.108 -69.8135 224.108 -69.6695 223.964 C -69.1655 223.388 -67.5095 221.516 -66.9335 221.516 C -66.6455 221.516 -66.5015 221.66 -66.5015 221.948 C -66.5015 222.38 -66.7175 223.064 -67.0775 224.036 L -68.0855 226.844 C -69.5255 230.84 -70.1015 232.532 -70.1015 233.252 C -70.1015 233.828 -69.8135 234.26 -69.0575 234.26 C -65.1335 234.26 -62.6135 230.804 -62.3975 230.516 C -62.2535 230.372 -62.3255 230.3 -62.4695 230.156 L -62.8655 229.76 C -62.9735 229.652 -63.1175 229.652 -63.1895 229.796 C -63.4055 230.084 -65.2775 232.028 -65.9975 232.1 C -66.2855 232.1 -66.4295 231.884 -66.4295 231.596 C -66.4295 231.236 -66.2855 230.66 -65.7815 229.292 Z" fill="#b9b9b9"/>
      <path d="M -55.7735 230.372 C -55.1975 228.932 -54.5495 227.852 -53.8295 226.7 C -52.3175 224.252 -49.2935 221.372 -48.2135 221.372 C -47.7095 221.372 -47.3855 221.66 -47.3855 222.236 C -47.3855 222.668 -48.3935 225.404 -48.9335 226.916 C -50.0855 230.084 -51.0935 232.532 -51.0935 233.18 C -51.0935 233.828 -50.6615 234.26 -49.8695 234.26 C -46.8455 234.26 -44.3255 231.74 -43.8935 231.164 C -43.7495 230.948 -43.7495 230.804 -43.8935 230.732 L -44.2535 230.444 C -44.3975 230.3 -44.5415 230.3 -44.6855 230.372 C -45.0455 230.876 -46.4135 232.1 -46.9175 232.1 C -47.2055 232.1 -47.3495 231.884 -47.3495 231.524 C -47.3495 231.02 -46.8455 229.652 -45.9095 227.276 C -44.4335 223.568 -43.9655 221.876 -43.9655 220.94 C -43.9655 219.932 -44.6855 218.924 -46.0175 218.924 C -49.4375 218.924 -52.7495 223.46 -53.8295 225.116 L -54.0455 224.972 C -53.3975 223.388 -52.3535 220.94 -52.3535 220.148 C -52.3535 219.644 -52.6775 218.924 -53.7215 218.924 C -56.9975 218.924 -59.3735 221.66 -59.8775 222.308 C -60.0215 222.452 -59.9495 222.596 -59.8055 222.668 L -59.4095 223.064 C -59.3015 223.172 -59.1575 223.172 -59.0855 223.028 C -58.5095 222.452 -57.1055 221.156 -56.4575 221.156 C -56.1335 221.156 -55.9175 221.372 -55.9175 221.732 C -55.9175 222.236 -56.7815 224.468 -57.5735 226.772 L -60.0215 233.432 C -60.0935 233.648 -60.0575 233.9 -59.7335 233.9 L -57.4295 233.9 C -57.0695 233.9 -56.9975 233.828 -56.9255 233.684 Z" fill="#b9b9b9"/>
      <path d="M -33.6335 219.716 C -32.5535 215.864 -31.4015 210.644 -28.5935 210.644 C -27.6575 210.644 -27.3695 211.328 -27.2975 211.688 C -27.1535 212.624 -26.7215 213.344 -25.3535 213.344 C -24.4895 213.344 -23.6975 212.624 -23.6975 211.616 C -23.6975 210.536 -24.8495 209.24 -27.5135 209.24 C -29.8175 209.24 -32.0495 210.68 -32.9855 211.76 C -35.4335 214.424 -36.0095 216.872 -37.0895 219.716 L -40.1135 219.716 C -40.4015 219.716 -40.4735 219.86 -40.5455 220.076 L -40.7255 220.94 C -40.7615 221.156 -40.6895 221.3 -40.4735 221.3 L -37.3775 221.3 L -40.6175 233.468 C -42.3455 240.056 -44.0735 243.08 -45.7295 243.08 C -46.1615 243.08 -46.3775 242.864 -46.4495 242.504 C -46.5215 241.568 -47.0975 240.632 -48.2495 240.632 C -49.2575 240.632 -49.9055 241.424 -49.9055 242.36 C -49.9055 243.656 -48.7535 244.592 -46.8815 244.592 C -42.6695 244.592 -39.7895 239.912 -37.8095 234.476 C -36.2975 230.3 -34.7135 224.108 -33.9215 221.3 L -30.3215 221.3 C -30.0335 221.3 -29.9615 221.228 -29.9255 221.012 L -29.7455 220.076 C -29.6735 219.86 -29.7455 219.716 -29.9615 219.716 Z" fill="#b9b9b9"/>
      <path d="M -25.7495 234.26 C -23.5895 234.26 -21.9335 233.468 -20.5655 231.884 C -18.4055 229.508 -17.4695 225.764 -17.4695 223.46 C -17.4695 220.22 -19.8455 218.924 -21.9335 218.924 C -23.8775 218.924 -25.6055 219.644 -27.0455 221.228 C -29.0615 223.424 -30.0695 226.304 -30.0695 229.328 C -30.0695 232.64 -27.8735 234.26 -25.7495 234.26 Z M -26.2535 232.316 C -27.0455 232.316 -27.7655 231.596 -27.7655 230.624 C -27.7655 229.184 -27.0455 227.024 -25.8575 225.008 C -24.0935 222.056 -22.7255 220.796 -21.2495 220.796 C -20.2055 220.796 -19.7015 221.624 -19.7015 222.416 C -19.7015 223.712 -20.8175 226.7 -22.1495 228.968 C -23.5535 231.308 -24.8495 232.316 -26.2535 232.316 Z" fill="#b9b9b9"/>
      <path d="M -8.0015 221.3 L -4.2575 221.3 C -4.0415 221.3 -3.9335 221.264 -3.8975 221.12 L -3.6095 220.076 C -3.5375 219.86 -3.6095 219.716 -3.7535 219.716 L -7.4615 219.716 L -5.1215 214.964 C -4.9775 214.604 -5.1215 214.244 -5.3375 214.244 C -5.4815 214.244 -5.6975 214.388 -5.9135 214.46 C -6.2015 214.676 -7.6415 215.324 -8.3615 215.396 C -9.0095 215.468 -9.1535 215.54 -9.2975 215.9 L -10.7735 219.716 L -13.5455 219.716 C -13.7615 219.716 -13.8335 219.788 -13.9055 220.004 L -14.1935 220.94 C -14.2655 221.228 -14.1935 221.3 -13.9775 221.3 L -11.3135 221.3 L -15.1295 231.164 C -15.3455 231.812 -15.4895 232.532 -15.4895 233.18 C -15.4895 233.684 -15.0575 234.26 -13.9775 234.26 C -10.7375 234.26 -7.4975 231.236 -7.0655 230.66 C -6.9935 230.516 -6.9935 230.444 -7.1375 230.372 L -7.5335 229.94 C -7.6775 229.796 -7.7495 229.796 -7.8935 229.94 C -8.1095 230.156 -10.3415 231.956 -11.1695 231.956 C -11.6015 231.956 -11.8175 231.668 -11.8175 231.308 C -11.8175 230.876 -11.4575 230.012 -11.1695 229.22 Z" fill="#b9b9b9"/>
      <path d="M 4.9585 229.94 C 4.8865 229.868 4.7425 229.94 4.6705 230.012 C 3.8785 231.092 2.4385 232.172 .7825 232.172 C -.2255 232.172 -1.1615 231.308 -1.1615 229.868 C -1.1615 228.572 -.9455 227.564 -.8015 227.204 C .5665 227.132 2.5105 226.7 4.4545 225.692 C 6.5425 224.54 7.7665 222.884 7.7665 221.048 C 7.7665 220.004 6.9025 218.924 5.2465 218.924 C 3.3025 218.924 1.2865 219.86 -.1535 221.156 C -3.1055 223.82 -4.6175 227.636 -4.6175 230.444 C -4.6175 232.964 -3.1775 234.26 -.8015 234.26 C 2.3665 234.26 4.8145 231.956 5.6065 230.66 C 5.6785 230.516 5.6785 230.444 5.4985 230.336 Z M 3.5185 220.652 C 4.3105 220.652 4.5985 221.3 4.5985 221.948 C 4.5985 222.956 3.8785 224.036 3.0865 224.684 C 1.8625 225.62 .1345 226.052 -.5135 226.052 C -.0815 224.108 1.7185 220.652 3.5185 220.652 Z" fill="#b9b9b9"/>
      <path d="M 16.4785 232.316 C 16.8385 233.612 17.4145 234.26 18.5665 234.26 C 21.3025 234.26 23.0305 230.876 23.4625 230.084 C 23.5345 229.94 23.4625 229.796 23.3185 229.724 L 22.8145 229.508 C 22.6705 229.436 22.5265 229.436 22.5265 229.58 C 22.3105 230.012 20.9425 232.028 20.3665 232.028 C 20.0065 232.028 19.6105 231.668 19.4305 231.02 L 17.8825 225.908 C 19.5745 223.748 21.5185 221.444 22.3105 221.444 C 22.9585 221.444 22.9585 222.164 22.4545 223.964 C 22.4545 224.108 22.5265 224.18 22.7425 224.252 L 23.2105 224.396 C 23.3545 224.468 23.4985 224.396 23.5705 224.252 C 24.0745 223.028 24.5065 221.228 24.5065 220.22 C 24.5065 219.5 24.0745 218.924 23.2825 218.924 C 22.0225 218.924 21.2305 219.716 20.6545 220.292 C 19.9345 221.084 18.6745 222.884 17.5585 224.504 L 17.4145 224.504 L 16.5505 221.012 C 16.1545 219.5 15.6145 218.924 14.6785 218.924 C 11.9425 218.924 9.8545 223.316 9.7105 223.748 C 9.7105 223.892 9.7105 224.036 9.7825 224.072 L 10.3585 224.324 C 10.5025 224.396 10.6465 224.324 10.7185 224.18 C 11.5105 222.74 12.3025 221.516 12.9145 221.516 C 13.1665 221.516 13.4185 221.66 13.5985 222.308 L 15.0385 226.952 C 13.4545 228.932 10.9345 231.812 10.1425 231.812 C 9.7105 231.812 9.2785 231.452 9.8545 229.508 C 9.8545 229.364 9.8545 229.22 9.7105 229.22 L 9.1345 229.076 C 8.9185 229.004 8.8465 229.076 8.7745 229.22 C 8.4145 230.084 7.9825 232.1 7.9825 232.892 C 7.9825 233.828 8.5585 234.26 9.4225 234.26 C 11.2225 234.26 13.4905 230.948 15.2545 228.428 L 15.3985 228.428 Z" fill="#b9b9b9"/>
      <path d="M 33.1465 221.3 L 36.8905 221.3 C 37.1065 221.3 37.2145 221.264 37.2505 221.12 L 37.5385 220.076 C 37.6105 219.86 37.5385 219.716 37.3945 219.716 L 33.6865 219.716 L 36.0265 214.964 C 36.1705 214.604 36.0265 214.244 35.8105 214.244 C 35.6665 214.244 35.4505 214.388 35.2345 214.46 C 34.9465 214.676 33.5065 215.324 32.7865 215.396 C 32.1385 215.468 31.9945 215.54 31.8505 215.9 L 30.3745 219.716 L 27.6025 219.716 C 27.3865 219.716 27.3145 219.788 27.2425 220.004 L 26.9545 220.94 C 26.8825 221.228 26.9545 221.3 27.1705 221.3 L 29.8345 221.3 L 26.0185 231.164 C 25.8025 231.812 25.6585 232.532 25.6585 233.18 C 25.6585 233.684 26.0905 234.26 27.1705 234.26 C 30.4105 234.26 33.6505 231.236 34.0825 230.66 C 34.1545 230.516 34.1545 230.444 34.0105 230.372 L 33.6145 229.94 C 33.4705 229.796 33.3985 229.796 33.2545 229.94 C 33.0385 230.156 30.8065 231.956 29.9785 231.956 C 29.5465 231.956 29.3305 231.668 29.3305 231.308 C 29.3305 230.876 29.6905 230.012 29.9785 229.22 Z" fill="#b9b9b9"/>
      <path d="M 49.4545 222.74 C 48.9865 224.108 48.4465 225.044 47.7985 226.052 C 46.8625 227.564 43.3345 231.812 42.1105 231.812 C 41.8225 231.812 41.5345 231.596 41.5345 231.236 C 41.5345 230.516 42.3265 228.572 43.2265 226.448 C 44.5945 223.208 45.2785 221.3 45.2785 220.436 C 45.2785 219.716 44.7745 218.924 43.7665 218.924 C 40.7065 218.924 38.3665 221.732 37.7905 222.38 C 37.7185 222.524 37.7185 222.596 37.7905 222.668 L 38.1865 223.028 C 38.2945 223.172 38.5105 223.172 38.5825 223.028 C 39.2305 222.308 40.5985 221.084 41.1745 221.084 C 41.5345 221.084 41.8225 221.3 41.8225 221.66 C 41.8225 222.164 41.2825 223.856 40.2745 226.088 C 38.7985 229.364 37.9345 231.236 37.9345 232.604 C 37.9345 233.324 38.7265 234.26 39.5905 234.26 C 43.1185 234.26 46.5745 229.436 48.0145 227.384 L 48.2665 227.528 C 47.8705 228.572 46.2865 232.676 46.2865 233.18 C 46.2865 233.828 46.7185 234.26 47.4385 234.26 C 50.4625 234.26 53.0545 231.236 53.4145 230.66 C 53.4865 230.516 53.4865 230.372 53.4145 230.3 L 52.9825 229.976 C 52.8385 229.868 52.6945 229.868 52.6225 230.012 C 52.1185 230.66 50.7505 232.028 50.2465 232.028 C 50.0305 232.028 49.8865 231.956 49.8865 231.596 C 49.8865 231.38 50.3185 229.94 51.3265 227.06 L 53.8465 219.716 C 53.9185 219.428 53.8465 219.284 53.4865 219.284 L 51.0385 219.284 C 50.8225 219.284 50.6065 219.284 50.5345 219.5 Z" fill="#b9b9b9"/>
      <path d="M 58.7425 233.9 C 58.9585 233.9 59.1025 233.828 59.1745 233.684 L 60.3985 230.012 C 60.7945 228.788 61.1905 227.852 61.5505 227.06 C 62.6305 224.972 64.6465 222.02 65.6545 222.02 C 66.1585 222.02 66.3745 222.236 66.6625 222.452 C 66.9505 222.668 67.3105 222.74 67.7425 222.74 C 68.3905 222.74 69.2545 221.804 69.2545 220.724 C 69.2545 219.644 68.3905 218.924 67.3825 218.924 C 65.0065 218.924 62.4505 223.316 61.5145 225.332 L 61.2625 225.188 C 62.0545 222.812 62.7025 220.94 62.7025 220.292 C 62.7025 219.644 62.3425 218.924 61.2625 218.924 C 58.3105 218.924 56.2225 221.516 55.5745 222.596 C 55.5025 222.74 55.5025 222.884 55.5745 222.956 L 56.0065 223.244 C 56.1505 223.316 56.2945 223.316 56.3665 223.172 C 56.8705 222.452 58.3105 221.084 58.9585 221.084 C 59.3185 221.084 59.6065 221.372 59.6065 221.66 C 59.6065 222.308 58.4185 225.98 57.8785 227.78 L 56.0785 233.612 C 56.0065 233.756 56.1505 233.9 56.3665 233.9 Z" fill="#b9b9b9"/>
      <path d="M 78.7225 229.94 C 78.6505 229.868 78.5065 229.94 78.4345 230.012 C 77.6425 231.092 76.2025 232.172 74.5465 232.172 C 73.5385 232.172 72.6025 231.308 72.6025 229.868 C 72.6025 228.572 72.8185 227.564 72.9625 227.204 C 74.3305 227.132 76.2745 226.7 78.2185 225.692 C 80.3065 224.54 81.5305 222.884 81.5305 221.048 C 81.5305 220.004 80.6665 218.924 79.0105 218.924 C 77.0665 218.924 75.0505 219.86 73.6105 221.156 C 70.6585 223.82 69.1465 227.636 69.1465 230.444 C 69.1465 232.964 70.5865 234.26 72.9625 234.26 C 76.1305 234.26 78.5785 231.956 79.3705 230.66 C 79.4425 230.516 79.4425 230.444 79.2625 230.336 Z M 77.2825 220.652 C 78.0745 220.652 78.3625 221.3 78.3625 221.948 C 78.3625 222.956 77.6425 224.036 76.8505 224.684 C 75.6265 225.62 73.8985 226.052 73.2505 226.052 C 73.6825 224.108 75.4825 220.652 77.2825 220.652 Z" fill="#b9b9b9"/>
    </g>
  </g>
</svg>
