<?xml version="1.0" encoding="UTF-8" standalone="no"?>
<!DOCTYPE svg PUBLIC "-//W3C//DTD SVG 1.1//EN" "http://www.w3.org/Graphics/SVG/1.1/DTD/svg11.dtd">
<svg xmlns="http://www.w3.org/2000/svg" xmlns:xl="http://www.w3.org/1999/xlink" version="1.1" viewBox="-46 209 102 24" width="102pt" height="2pc" xmlns:dc="http://purl.org/dc/elements/1.1/">
  <metadata> Produced by OmniGraffle 7.5 
    <dc:date>2017-10-12 22:05:08 +0000</dc:date>
  </metadata>
  <defs/>
  <g stroke="none" stroke-opacity="1" stroke-dasharray="none" fill="none" fill-opacity="1">
    <title>24 pt text → shapes</title>
    <g>
      <title>MidnightBlue</title>
      <path d="M -40.5335 212.712 C -39.6695 212.712 -39.1175 211.872 -39.1175 211.32 C -39.1175 210.72 -39.6215 210.12 -40.5815 210.12 C -41.3255 210.12 -41.9255 210.768 -41.9255 211.416 C -41.9255 212.016 -41.4935 212.712 -40.5335 212.712 Z M -40.9895 218.88 C -40.5815 217.752 -40.2695 216.864 -40.2695 216.384 C -40.2695 215.904 -40.5575 215.616 -41.1335 215.616 C -43.2455 215.616 -45.4055 218.4 -45.5495 218.544 C -45.5975 218.64 -45.5495 218.688 -45.4535 218.76 L -45.2135 218.976 C -45.1175 219.072 -45.0215 219.072 -44.9255 218.976 C -44.5895 218.592 -43.4855 217.344 -43.1015 217.344 C -42.9095 217.344 -42.8135 217.44 -42.8135 217.632 C -42.8135 217.92 -42.9575 218.376 -43.1975 219.024 L -43.8695 220.896 C -44.8295 223.56 -45.2135 224.688 -45.2135 225.168 C -45.2135 225.552 -45.0215 225.84 -44.5175 225.84 C -41.9015 225.84 -40.2215 223.536 -40.0775 223.344 C -39.9815 223.248 -40.0295 223.2 -40.1255 223.104 L -40.3895 222.84 C -40.4615 222.768 -40.5575 222.768 -40.6055 222.864 C -40.7495 223.056 -41.9975 224.352 -42.4775 224.4 C -42.6695 224.4 -42.7655 224.256 -42.7655 224.064 C -42.7655 223.824 -42.6695 223.44 -42.3335 222.528 Z" fill="#212983"/>
      <path d="M -35.6615 223.248 C -35.2775 222.288 -34.8455 221.568 -34.3655 220.8 C -33.3575 219.168 -31.3415 217.248 -30.6215 217.248 C -30.2855 217.248 -30.0695 217.44 -30.0695 217.824 C -30.0695 218.112 -30.7415 219.936 -31.1015 220.944 C -31.8695 223.056 -32.5415 224.688 -32.5415 225.12 C -32.5415 225.552 -32.2535 225.84 -31.7255 225.84 C -29.7095 225.84 -28.0295 224.16 -27.7415 223.776 C -27.6455 223.632 -27.6455 223.536 -27.7415 223.488 L -27.9815 223.296 C -28.0775 223.2 -28.1735 223.2 -28.2695 223.248 C -28.5095 223.584 -29.4215 224.4 -29.7575 224.4 C -29.9495 224.4 -30.0455 224.256 -30.0455 224.016 C -30.0455 223.68 -29.7095 222.768 -29.0855 221.184 C -28.1015 218.712 -27.7895 217.584 -27.7895 216.96 C -27.7895 216.288 -28.2695 215.616 -29.1575 215.616 C -31.4375 215.616 -33.6455 218.64 -34.3655 219.744 L -34.5095 219.648 C -34.0775 218.592 -33.3815 216.96 -33.3815 216.432 C -33.3815 216.096 -33.5975 215.616 -34.2935 215.616 C -36.4775 215.616 -38.0615 217.44 -38.3975 217.872 C -38.4935 217.968 -38.4455 218.064 -38.3495 218.112 L -38.0855 218.376 C -38.0135 218.448 -37.9175 218.448 -37.8695 218.352 C -37.4855 217.968 -36.5495 217.104 -36.1175 217.104 C -35.9015 217.104 -35.7575 217.248 -35.7575 217.488 C -35.7575 217.824 -36.3335 219.312 -36.8615 220.848 L -38.4935 225.288 C -38.5415 225.432 -38.5175 225.6 -38.3015 225.6 L -36.7655 225.6 C -36.5255 225.6 -36.4775 225.552 -36.4295 225.456 Z" fill="#212983"/>
      <path d="M -20.9015 216.144 C -20.1815 213.576 -19.4135 210.096 -17.5415 210.096 C -16.9175 210.096 -16.7255 210.552 -16.6775 210.792 C -16.5815 211.416 -16.2935 211.896 -15.3815 211.896 C -14.8055 211.896 -14.2775 211.416 -14.2775 210.744 C -14.2775 210.024 -15.0455 209.16 -16.8215 209.16 C -18.3575 209.16 -19.8455 210.12 -20.4695 210.84 C -22.1015 212.616 -22.4855 214.248 -23.2055 216.144 L -25.2215 216.144 C -25.4135 216.144 -25.4615 216.24 -25.5095 216.384 L -25.6295 216.96 C -25.6535 217.104 -25.6055 217.2 -25.4615 217.2 L -23.3975 217.2 L -25.5575 225.312 C -26.7095 229.704 -27.8615 231.72 -28.9655 231.72 C -29.2535 231.72 -29.3975 231.576 -29.4455 231.336 C -29.4935 230.712 -29.8775 230.088 -30.6455 230.088 C -31.3175 230.088 -31.7495 230.616 -31.7495 231.24 C -31.7495 232.104 -30.9815 232.728 -29.7335 232.728 C -26.9255 232.728 -25.0055 229.608 -23.6855 225.984 C -22.6775 223.2 -21.6215 219.072 -21.0935 217.2 L -18.6935 217.2 C -18.5015 217.2 -18.4535 217.152 -18.4295 217.008 L -18.3095 216.384 C -18.2615 216.24 -18.3095 216.144 -18.4535 216.144 Z" fill="#212983"/>
      <path d="M -15.6455 225.84 C -14.2055 225.84 -13.1015 225.312 -12.1895 224.256 C -10.7495 222.672 -10.1255 220.176 -10.1255 218.64 C -10.1255 216.48 -11.7095 215.616 -13.1015 215.616 C -14.3975 215.616 -15.5495 216.096 -16.5095 217.152 C -17.8535 218.616 -18.5255 220.536 -18.5255 222.552 C -18.5255 224.76 -17.0615 225.84 -15.6455 225.84 Z M -15.9815 224.544 C -16.5095 224.544 -16.9895 224.064 -16.9895 223.416 C -16.9895 222.456 -16.5095 221.016 -15.7175 219.672 C -14.5415 217.704 -13.6295 216.864 -12.6455 216.864 C -11.9495 216.864 -11.6135 217.416 -11.6135 217.944 C -11.6135 218.808 -12.3575 220.8 -13.2455 222.312 C -14.1815 223.872 -15.0455 224.544 -15.9815 224.544 Z" fill="#212983"/>
      <path d="M -3.8135 217.2 L -1.3175 217.2 C -1.1735 217.2 -1.1015 217.176 -1.0775 217.08 L -.8855 216.384 C -.8375 216.24 -.8855 216.144 -.9815 216.144 L -3.4535 216.144 L -1.8935 212.976 C -1.7975 212.736 -1.8935 212.496 -2.0375 212.496 C -2.1335 212.496 -2.2775 212.592 -2.4215 212.64 C -2.6135 212.784 -3.5735 213.216 -4.0535 213.264 C -4.4855 213.312 -4.5815 213.36 -4.6775 213.6 L -5.6615 216.144 L -7.5095 216.144 C -7.6535 216.144 -7.7015 216.192 -7.7495 216.336 L -7.9415 216.96 C -7.9895 217.152 -7.9415 217.2 -7.7975 217.2 L -6.0215 217.2 L -8.5655 223.776 C -8.7095 224.208 -8.8055 224.688 -8.8055 225.12 C -8.8055 225.456 -8.5175 225.84 -7.7975 225.84 C -5.6375 225.84 -3.4775 223.824 -3.1895 223.44 C -3.1415 223.344 -3.1415 223.296 -3.2375 223.248 L -3.5015 222.96 C -3.5975 222.864 -3.6455 222.864 -3.7415 222.96 C -3.8855 223.104 -5.3735 224.304 -5.9255 224.304 C -6.2135 224.304 -6.3575 224.112 -6.3575 223.872 C -6.3575 223.584 -6.1175 223.008 -5.9255 222.48 Z" fill="#212983"/>
      <path d="M 4.8265 222.96 C 4.7785 222.912 4.6825 222.96 4.6345 223.008 C 4.1065 223.728 3.1465 224.448 2.0425 224.448 C 1.3705 224.448 .7465 223.872 .7465 222.912 C .7465 222.048 .8905 221.376 .9865 221.136 C 1.8985 221.088 3.1945 220.8 4.4905 220.128 C 5.8825 219.36 6.6985 218.256 6.6985 217.032 C 6.6985 216.336 6.1225 215.616 5.0185 215.616 C 3.7225 215.616 2.3785 216.24 1.4185 217.104 C -.5495 218.88 -1.5575 221.424 -1.5575 223.296 C -1.5575 224.976 -.5975 225.84 .9865 225.84 C 3.0985 225.84 4.7305 224.304 5.2585 223.44 C 5.3065 223.344 5.3065 223.296 5.1865 223.224 Z M 3.8665 216.768 C 4.3945 216.768 4.5865 217.2 4.5865 217.632 C 4.5865 218.304 4.1065 219.024 3.5785 219.456 C 2.7625 220.08 1.6105 220.368 1.1785 220.368 C 1.4665 219.072 2.6665 216.768 3.8665 216.768 Z" fill="#212983"/>
      <path d="M 12.5065 224.544 C 12.7465 225.408 13.1305 225.84 13.8985 225.84 C 15.7225 225.84 16.8745 223.584 17.1625 223.056 C 17.2105 222.96 17.1625 222.864 17.0665 222.816 L 16.7305 222.672 C 16.6345 222.624 16.5385 222.624 16.5385 222.72 C 16.3945 223.008 15.4825 224.352 15.0985 224.352 C 14.8585 224.352 14.5945 224.112 14.4745 223.68 L 13.4425 220.272 C 14.5705 218.832 15.8665 217.296 16.3945 217.296 C 16.8265 217.296 16.8265 217.776 16.4905 218.976 C 16.4905 219.072 16.5385 219.12 16.6825 219.168 L 16.9945 219.264 C 17.0905 219.312 17.1865 219.264 17.2345 219.168 C 17.5705 218.352 17.8585 217.152 17.8585 216.48 C 17.8585 216 17.5705 215.616 17.0425 215.616 C 16.2025 215.616 15.6745 216.144 15.2905 216.528 C 14.8105 217.056 13.9705 218.256 13.2265 219.336 L 13.1305 219.336 L 12.5545 217.008 C 12.2905 216 11.9305 215.616 11.3065 215.616 C 9.4825 215.616 8.0905 218.544 7.9945 218.832 C 7.9945 218.928 7.9945 219.024 8.0425 219.048 L 8.4265 219.216 C 8.5225 219.264 8.6185 219.216 8.6665 219.12 C 9.1945 218.16 9.7225 217.344 10.1305 217.344 C 10.2985 217.344 10.4665 217.44 10.5865 217.872 L 11.5465 220.968 C 10.4905 222.288 8.8105 224.208 8.2825 224.208 C 7.9945 224.208 7.7065 223.968 8.0905 222.672 C 8.0905 222.576 8.0905 222.48 7.9945 222.48 L 7.6105 222.384 C 7.4665 222.336 7.4185 222.384 7.3705 222.48 C 7.1305 223.056 6.8425 224.4 6.8425 224.928 C 6.8425 225.552 7.2265 225.84 7.8025 225.84 C 9.0025 225.84 10.5145 223.632 11.6905 221.952 L 11.7865 221.952 Z" fill="#212983"/>
      <path d="M 23.6185 217.2 L 26.1145 217.2 C 26.2585 217.2 26.3305 217.176 26.3545 217.08 L 26.5465 216.384 C 26.5945 216.24 26.5465 216.144 26.4505 216.144 L 23.9785 216.144 L 25.5385 212.976 C 25.6345 212.736 25.5385 212.496 25.3945 212.496 C 25.2985 212.496 25.1545 212.592 25.0105 212.64 C 24.8185 212.784 23.8585 213.216 23.3785 213.264 C 22.9465 213.312 22.8505 213.36 22.7545 213.6 L 21.7705 216.144 L 19.9225 216.144 C 19.7785 216.144 19.7305 216.192 19.6825 216.336 L 19.4905 216.96 C 19.4425 217.152 19.4905 217.2 19.6345 217.2 L 21.4105 217.2 L 18.8665 223.776 C 18.7225 224.208 18.6265 224.688 18.6265 225.12 C 18.6265 225.456 18.9145 225.84 19.6345 225.84 C 21.7945 225.84 23.9545 223.824 24.2425 223.44 C 24.2905 223.344 24.2905 223.296 24.1945 223.248 L 23.9305 222.96 C 23.8345 222.864 23.7865 222.864 23.6905 222.96 C 23.5465 223.104 22.0585 224.304 21.5065 224.304 C 21.2185 224.304 21.0745 224.112 21.0745 223.872 C 21.0745 223.584 21.3145 223.008 21.5065 222.48 Z" fill="#212983"/>
      <path d="M 34.4905 218.16 C 34.1785 219.072 33.8185 219.696 33.3865 220.368 C 32.7625 221.376 30.4105 224.208 29.5945 224.208 C 29.4025 224.208 29.2105 224.064 29.2105 223.824 C 29.2105 223.344 29.7385 222.048 30.3385 220.632 C 31.2505 218.472 31.7065 217.2 31.7065 216.624 C 31.7065 216.144 31.3705 215.616 30.6985 215.616 C 28.6585 215.616 27.0985 217.488 26.7145 217.92 C 26.6665 218.016 26.6665 218.064 26.7145 218.112 L 26.9785 218.352 C 27.0505 218.448 27.1945 218.448 27.2425 218.352 C 27.6745 217.872 28.5865 217.056 28.9705 217.056 C 29.2105 217.056 29.4025 217.2 29.4025 217.44 C 29.4025 217.776 29.0425 218.904 28.3705 220.392 C 27.3865 222.576 26.8105 223.824 26.8105 224.736 C 26.8105 225.216 27.3385 225.84 27.9145 225.84 C 30.2665 225.84 32.5705 222.624 33.5305 221.256 L 33.6985 221.352 C 33.4345 222.048 32.3785 224.784 32.3785 225.12 C 32.3785 225.552 32.6665 225.84 33.1465 225.84 C 35.1625 225.84 36.8905 223.824 37.1305 223.44 C 37.1785 223.344 37.1785 223.248 37.1305 223.2 L 36.8425 222.984 C 36.7465 222.912 36.6505 222.912 36.6025 223.008 C 36.2665 223.44 35.3545 224.352 35.0185 224.352 C 34.8745 224.352 34.7785 224.304 34.7785 224.064 C 34.7785 223.92 35.0665 222.96 35.7385 221.04 L 37.4185 216.144 C 37.4665 215.952 37.4185 215.856 37.1785 215.856 L 35.5465 215.856 C 35.4025 215.856 35.2585 215.856 35.2105 216 Z" fill="#212983"/>
      <path d="M 40.6825 225.6 C 40.8265 225.6 40.9225 225.552 40.9705 225.456 L 41.7865 223.008 C 42.0505 222.192 42.3145 221.568 42.5545 221.04 C 43.2745 219.648 44.6185 217.68 45.2905 217.68 C 45.6265 217.68 45.7705 217.824 45.9625 217.968 C 46.1545 218.112 46.3945 218.16 46.6825 218.16 C 47.1145 218.16 47.6905 217.536 47.6905 216.816 C 47.6905 216.096 47.1145 215.616 46.4425 215.616 C 44.8585 215.616 43.1545 218.544 42.5305 219.888 L 42.3625 219.792 C 42.8905 218.208 43.3225 216.96 43.3225 216.528 C 43.3225 216.096 43.0825 215.616 42.3625 215.616 C 40.3945 215.616 39.0025 217.344 38.5705 218.064 C 38.5225 218.16 38.5225 218.256 38.5705 218.304 L 38.8585 218.496 C 38.9545 218.544 39.0505 218.544 39.0985 218.448 C 39.4345 217.968 40.3945 217.056 40.8265 217.056 C 41.0665 217.056 41.2585 217.248 41.2585 217.44 C 41.2585 217.872 40.4665 220.32 40.1065 221.52 L 38.9065 225.408 C 38.8585 225.504 38.9545 225.6 39.0985 225.6 Z" fill="#212983"/>
      <path d="M 54.0025 222.96 C 53.9545 222.912 53.8585 222.96 53.8105 223.008 C 53.2825 223.728 52.3225 224.448 51.2185 224.448 C 50.5465 224.448 49.9225 223.872 49.9225 222.912 C 49.9225 222.048 50.0665 221.376 50.1625 221.136 C 51.0745 221.088 52.3705 220.8 53.6665 220.128 C 55.0585 219.36 55.8745 218.256 55.8745 217.032 C 55.8745 216.336 55.2985 215.616 54.1945 215.616 C 52.8985 215.616 51.5545 216.24 50.5945 217.104 C 48.6265 218.88 47.6185 221.424 47.6185 223.296 C 47.6185 224.976 48.5785 225.84 50.1625 225.84 C 52.2745 225.84 53.9065 224.304 54.4345 223.44 C 54.4825 223.344 54.4825 223.296 54.3625 223.224 Z M 53.0425 216.768 C 53.5705 216.768 53.7625 217.2 53.7625 217.632 C 53.7625 218.304 53.2825 219.024 52.7545 219.456 C 51.9385 220.08 50.7865 220.368 50.3545 220.368 C 50.6425 219.072 51.8425 216.768 53.0425 216.768 Z" fill="#212983"/>
    </g>
  </g>
</svg>
