<svg xmlns="http://www.w3.org/2000/svg" xmlns:xl="http://www.w3.org/1999/xlink" version="1.1" viewBox="-42 161 406 95" width="406pt" height="95pt" xmlns:dc="http://purl.org/dc/elements/1.1/"><metadata>Produced by OmniGraffle 7.4<dc:date>2017-07-06 21:15:52 +0000</dc:date></metadata><g stroke="none" stroke-opacity="1" stroke-dasharray="none" fill="none" fill-opacity="1"><title>infotexture wordmark</title><title>MidnightBlue</title><path d="M -21.8215 175.34798 C -18.3655 175.34798 -16.1575 171.98798 -16.1575 169.77998 C -16.1575 167.37998 -18.1735 164.97998 -22.0135 164.97998 C -24.9895 164.97998 -27.3895 167.57198 -27.3895 170.16398 C -27.3895 172.56398 -25.6615 175.34798 -21.8215 175.34798 Z M -23.6455 200.01998 C -22.0135 195.50798 -20.7655 191.95598 -20.7655 190.03598 C -20.7655 188.11598 -21.9175 186.96398 -24.2215 186.96398 C -32.6695 186.96398 -41.3095 198.09998 -41.8855 198.67598 C -42.0775 199.05998 -41.8855 199.25198 -41.5015 199.53998 L -40.5415 200.40398 C -40.1575 200.78798 -39.7735 200.78798 -39.3895 200.40398 C -38.0455 198.86798 -33.6295 193.87598 -32.0935 193.87598 C -31.3255 193.87598 -30.9415 194.25998 -30.9415 195.02798 C -30.9415 196.17998 -31.5175 198.00398 -32.4775 200.59598 L -35.1655 208.08398 C -39.0055 218.73998 -40.5415 223.25198 -40.5415 225.17198 C -40.5415 226.70798 -39.7735 227.85998 -37.7575 227.85998 C -27.2935 227.85998 -20.5735 218.64398 -19.9975 217.87598 C -19.6135 217.49198 -19.8055 217.29998 -20.1895 216.91598 L -21.2455 215.85998 C -21.5335 215.57198 -21.9175 215.57198 -22.1095 215.95598 C -22.6855 216.72398 -27.6775 221.90798 -29.5975 222.09998 C -30.3655 222.09998 -30.7495 221.52398 -30.7495 220.75598 C -30.7495 219.79598 -30.3655 218.25998 -29.0215 214.61198 Z" fill="#212983"/><path d="M -2.3335 217.49198 C -.7975 213.65198 .9305 210.77198 2.8505 207.69998 C 6.8825 201.17198 14.9465 193.49198 17.8265 193.49198 C 19.1705 193.49198 20.0345 194.25998 20.0345 195.79598 C 20.0345 196.94798 17.3465 204.24398 15.9065 208.27598 C 12.8345 216.72398 10.1465 223.25198 10.1465 224.97998 C 10.1465 226.70798 11.2985 227.85998 13.4105 227.85998 C 21.4745 227.85998 28.1945 221.13998 29.3465 219.60398 C 29.7305 219.02798 29.7305 218.64398 29.3465 218.45198 L 28.3865 217.68398 C 28.0025 217.29998 27.6185 217.29998 27.2345 217.49198 C 26.2745 218.83598 22.6265 222.09998 21.2825 222.09998 C 20.5145 222.09998 20.1305 221.52398 20.1305 220.56398 C 20.1305 219.21998 21.4745 215.57198 23.9705 209.23598 C 27.9065 199.34798 29.1545 194.83598 29.1545 192.33998 C 29.1545 189.65198 27.2345 186.96398 23.6825 186.96398 C 14.5625 186.96398 5.7305 199.05998 2.8505 203.47598 L 2.2745 203.09198 C 4.0025 198.86798 6.7865 192.33998 6.7865 190.22798 C 6.7865 188.88398 5.9225 186.96398 3.1385 186.96398 C -5.5975 186.96398 -11.9335 194.25998 -13.2775 195.98798 C -13.6615 196.37198 -13.4695 196.75598 -13.0855 196.94798 L -12.0295 198.00398 C -11.7415 198.29198 -11.3575 198.29198 -11.1655 197.90798 C -9.6295 196.37198 -5.8855 192.91598 -4.1575 192.91598 C -3.2935 192.91598 -2.7175 193.49198 -2.7175 194.45198 C -2.7175 195.79598 -5.0215 201.74798 -7.1335 207.89198 L -13.6615 225.65198 C -13.8535 226.22798 -13.7575 226.89998 -12.8935 226.89998 L -6.7495 226.89998 C -5.7895 226.89998 -5.5975 226.70798 -5.4055 226.32398 Z" fill="#212983"/><path d="M 56.7065 189.07598 C 59.5865 178.80398 62.6585 164.88398 70.1465 164.88398 C 72.6425 164.88398 73.4105 166.70798 73.6025 167.66798 C 73.9865 170.16398 75.1385 172.08398 78.7865 172.08398 C 81.0905 172.08398 83.2025 170.16398 83.2025 167.47598 C 83.2025 164.59598 80.1305 161.13998 73.0265 161.13998 C 66.8825 161.13998 60.9305 164.97998 58.4345 167.85998 C 51.9065 174.96398 50.3705 181.49198 47.4905 189.07598 L 39.4265 189.07598 C 38.6585 189.07598 38.4665 189.45998 38.2745 190.03598 L 37.7945 192.33998 C 37.6985 192.91598 37.8905 193.29998 38.4665 193.29998 L 46.7225 193.29998 L 38.0825 225.74798 C 33.4745 243.31598 28.8665 251.37998 24.4505 251.37998 C 23.2985 251.37998 22.7225 250.80398 22.5305 249.84398 C 22.3385 247.34798 20.8025 244.85198 17.7305 244.85198 C 15.0425 244.85198 13.3145 246.96398 13.3145 249.45998 C 13.3145 252.91598 16.3865 255.41198 21.3785 255.41198 C 32.6105 255.41198 40.2905 242.93198 45.5705 228.43598 C 49.6025 217.29998 53.8265 200.78798 55.9385 193.29998 L 65.5385 193.29998 C 66.3065 193.29998 66.4985 193.10798 66.5945 192.53198 L 67.0745 190.03598 C 67.2665 189.45998 67.0745 189.07598 66.4985 189.07598 Z" fill="#212983"/><path d="M 77.7305 227.85998 C 83.4905 227.85998 87.9065 225.74798 91.5545 221.52398 C 97.3145 215.18798 99.8105 205.20398 99.8105 199.05998 C 99.8105 190.41998 93.4745 186.96398 87.9065 186.96398 C 82.7225 186.96398 78.1145 188.88398 74.2745 193.10798 C 68.8985 198.96398 66.2105 206.64398 66.2105 214.70798 C 66.2105 223.53998 72.0665 227.85998 77.7305 227.85998 Z M 76.3865 222.67598 C 74.2745 222.67598 72.3545 220.75598 72.3545 218.16398 C 72.3545 214.32398 74.2745 208.56398 77.4425 203.18798 C 82.1465 195.31598 85.7945 191.95598 89.7305 191.95598 C 92.5145 191.95598 93.8585 194.16398 93.8585 196.27598 C 93.8585 199.73198 90.8825 207.69998 87.3305 213.74798 C 83.5865 219.98798 80.1305 222.67598 76.3865 222.67598 Z" fill="#212983"/><path d="M 125.0585 193.29998 L 135.0425 193.29998 C 135.6185 193.29998 135.9065 193.20398 136.0025 192.81998 L 136.7705 190.03598 C 136.9625 189.45998 136.7705 189.07598 136.3865 189.07598 L 126.4985 189.07598 L 132.7385 176.40398 C 133.1225 175.44398 132.7385 174.48398 132.1625 174.48398 C 131.7785 174.48398 131.2025 174.86798 130.6265 175.05998 C 129.8585 175.63598 126.0185 177.36398 124.0985 177.55598 C 122.3705 177.74798 121.9865 177.93998 121.6025 178.89998 L 117.6665 189.07598 L 110.2745 189.07598 C 109.6985 189.07598 109.5065 189.26798 109.3145 189.84398 L 108.5465 192.33998 C 108.3545 193.10798 108.5465 193.29998 109.1225 193.29998 L 116.2265 193.29998 L 106.0505 219.60398 C 105.4745 221.33198 105.0905 223.25198 105.0905 224.97998 C 105.0905 226.32398 106.2425 227.85998 109.1225 227.85998 C 117.7625 227.85998 126.4025 219.79598 127.5545 218.25998 C 127.7465 217.87598 127.7465 217.68398 127.3625 217.49198 L 126.3065 216.33998 C 125.9225 215.95598 125.7305 215.95598 125.3465 216.33998 C 124.7705 216.91598 118.8185 221.71598 116.6105 221.71598 C 115.4585 221.71598 114.8825 220.94798 114.8825 219.98798 C 114.8825 218.83598 115.8425 216.53198 116.6105 214.41998 Z" fill="#212983"/><path d="M 159.6185 216.33998 C 159.4265 216.14798 159.0425 216.33998 158.8505 216.53198 C 156.7385 219.41198 152.8985 222.29198 148.4825 222.29198 C 145.7945 222.29198 143.2985 219.98798 143.2985 216.14798 C 143.2985 212.69198 143.8745 210.00398 144.2585 209.04398 C 147.9065 208.85198 153.0905 207.69998 158.2745 205.01198 C 163.8425 201.93998 167.1065 197.52398 167.1065 192.62798 C 167.1065 189.84398 164.8025 186.96398 160.3865 186.96398 C 155.2025 186.96398 149.8265 189.45998 145.9865 192.91598 C 138.1145 200.01998 134.0825 210.19598 134.0825 217.68398 C 134.0825 224.40398 137.9225 227.85998 144.2585 227.85998 C 152.7065 227.85998 159.2345 221.71598 161.3465 218.25998 C 161.5385 217.87598 161.5385 217.68398 161.0585 217.39598 Z M 155.7785 191.57198 C 157.8905 191.57198 158.6585 193.29998 158.6585 195.02798 C 158.6585 197.71598 156.7385 200.59598 154.6265 202.32398 C 151.3625 204.81998 146.7545 205.97198 145.0265 205.97198 C 146.1785 200.78798 150.9785 191.57198 155.7785 191.57198 Z" fill="#212983"/><path d="M 190.3385 222.67598 C 191.2985 226.13198 192.8345 227.85998 195.9065 227.85998 C 203.2025 227.85998 207.8105 218.83598 208.9625 216.72398 C 209.1545 216.33998 208.9625 215.95598 208.5785 215.76398 L 207.2345 215.18798 C 206.8505 214.99598 206.4665 214.99598 206.4665 215.37998 C 205.8905 216.53198 202.2425 221.90798 200.7065 221.90798 C 199.7465 221.90798 198.6905 220.94798 198.2105 219.21998 L 194.0825 205.58798 C 198.5945 199.82798 203.7785 193.68398 205.8905 193.68398 C 207.6185 193.68398 207.6185 195.60398 206.2745 200.40398 C 206.2745 200.78798 206.4665 200.97998 207.0425 201.17198 L 208.2905 201.55598 C 208.6745 201.74798 209.0585 201.55598 209.2505 201.17198 C 210.5945 197.90798 211.7465 193.10798 211.7465 190.41998 C 211.7465 188.49998 210.5945 186.96398 208.4825 186.96398 C 205.1225 186.96398 203.0105 189.07598 201.4745 190.61198 C 199.5545 192.72398 196.1945 197.52398 193.2185 201.84398 L 192.8345 201.84398 L 190.5305 192.53198 C 189.4745 188.49998 188.0345 186.96398 185.5385 186.96398 C 178.2425 186.96398 172.6745 198.67598 172.2905 199.82798 C 172.2905 200.21198 172.2905 200.59598 172.4825 200.69198 L 174.0185 201.36398 C 174.4025 201.55598 174.7865 201.36398 174.9785 200.97998 C 177.0905 197.13998 179.2025 193.87598 180.8345 193.87598 C 181.5065 193.87598 182.1785 194.25998 182.6585 195.98798 L 186.4985 208.37198 C 182.2745 213.65198 175.5545 221.33198 173.4425 221.33198 C 172.2905 221.33198 171.1385 220.37198 172.6745 215.18798 C 172.6745 214.80398 172.6745 214.41998 172.2905 214.41998 L 170.7545 214.03598 C 170.1785 213.84398 169.9865 214.03598 169.7945 214.41998 C 168.8345 216.72398 167.6825 222.09998 167.6825 224.21198 C 167.6825 226.70798 169.2185 227.85998 171.5225 227.85998 C 176.3225 227.85998 182.3705 219.02798 187.0745 212.30798 L 187.4585 212.30798 Z" fill="#212983"/><path d="M 234.7865 193.29998 L 244.7705 193.29998 C 245.3465 193.29998 245.6345 193.20398 245.7305 192.81998 L 246.4985 190.03598 C 246.6905 189.45998 246.4985 189.07598 246.1145 189.07598 L 236.2265 189.07598 L 242.4665 176.40398 C 242.8505 175.44398 242.4665 174.48398 241.8905 174.48398 C 241.5065 174.48398 240.9305 174.86798 240.3545 175.05998 C 239.5865 175.63598 235.7465 177.36398 233.8265 177.55598 C 232.0985 177.74798 231.7145 177.93998 231.3305 178.89998 L 227.3945 189.07598 L 220.0025 189.07598 C 219.4265 189.07598 219.2345 189.26798 219.0425 189.84398 L 218.2745 192.33998 C 218.0825 193.10798 218.2745 193.29998 218.8505 193.29998 L 225.9545 193.29998 L 215.7785 219.60398 C 215.2025 221.33198 214.8185 223.25198 214.8185 224.97998 C 214.8185 226.32398 215.9705 227.85998 218.8505 227.85998 C 227.4905 227.85998 236.1305 219.79598 237.2825 218.25998 C 237.4745 217.87598 237.4745 217.68398 237.0905 217.49198 L 236.0345 216.33998 C 235.6505 215.95598 235.4585 215.95598 235.0745 216.33998 C 234.4985 216.91598 228.5465 221.71598 226.3385 221.71598 C 225.1865 221.71598 224.6105 220.94798 224.6105 219.98798 C 224.6105 218.83598 225.5705 216.53198 226.3385 214.41998 Z" fill="#212983"/><path d="M 278.2745 197.13998 C 277.0265 200.78798 275.5865 203.28398 273.8585 205.97198 C 271.3625 210.00398 261.9545 221.33198 258.6905 221.33198 C 257.9225 221.33198 257.1545 220.75598 257.1545 219.79598 C 257.1545 217.87598 259.2665 212.69198 261.6665 207.02798 C 265.3145 198.38798 267.1385 193.29998 267.1385 190.99598 C 267.1385 189.07598 265.7945 186.96398 263.1065 186.96398 C 254.9465 186.96398 248.7065 194.45198 247.1705 196.17998 C 246.9785 196.56398 246.9785 196.75598 247.1705 196.94798 L 248.2265 197.90798 C 248.5145 198.29198 249.0905 198.29198 249.2825 197.90798 C 251.0105 195.98798 254.6585 192.72398 256.1945 192.72398 C 257.1545 192.72398 257.9225 193.29998 257.9225 194.25998 C 257.9225 195.60398 256.4825 200.11598 253.7945 206.06798 C 249.8585 214.80398 247.5545 219.79598 247.5545 223.44398 C 247.5545 225.36398 249.6665 227.85998 251.9705 227.85998 C 261.3785 227.85998 270.5945 214.99598 274.4345 209.52398 L 275.1065 209.90798 C 274.0505 212.69198 269.8265 223.63598 269.8265 224.97998 C 269.8265 226.70798 270.9785 227.85998 272.8985 227.85998 C 280.9625 227.85998 287.8745 219.79598 288.8345 218.25998 C 289.0265 217.87598 289.0265 217.49198 288.8345 217.29998 L 287.6825 216.43598 C 287.2985 216.14798 286.9145 216.14798 286.7225 216.53198 C 285.3785 218.25998 281.7305 221.90798 280.3865 221.90798 C 279.8105 221.90798 279.4265 221.71598 279.4265 220.75598 C 279.4265 220.17998 280.5785 216.33998 283.2665 208.65998 L 289.9865 189.07598 C 290.1785 188.30798 289.9865 187.92398 289.0265 187.92398 L 282.4985 187.92398 C 281.9225 187.92398 281.3465 187.92398 281.1545 188.49998 Z" fill="#212983"/><path d="M 303.0425 226.89998 C 303.6185 226.89998 304.0025 226.70798 304.1945 226.32398 L 307.4585 216.53198 C 308.5145 213.26798 309.5705 210.77198 310.5305 208.65998 C 313.4105 203.09198 318.7865 195.21998 321.4745 195.21998 C 322.8185 195.21998 323.3945 195.79598 324.1625 196.37198 C 324.9305 196.94798 325.8905 197.13998 327.0425 197.13998 C 328.7705 197.13998 331.0745 194.64398 331.0745 191.76398 C 331.0745 188.88398 328.7705 186.96398 326.0825 186.96398 C 319.7465 186.96398 312.9305 198.67598 310.4345 204.05198 L 309.7625 203.66798 C 311.8745 197.33198 313.6025 192.33998 313.6025 190.61198 C 313.6025 188.88398 312.6425 186.96398 309.7625 186.96398 C 301.8905 186.96398 296.3225 193.87598 294.5945 196.75598 C 294.4025 197.13998 294.4025 197.52398 294.5945 197.71598 L 295.7465 198.48398 C 296.1305 198.67598 296.5145 198.67598 296.7065 198.29198 C 298.0505 196.37198 301.8905 192.72398 303.6185 192.72398 C 304.5785 192.72398 305.3465 193.49198 305.3465 194.25998 C 305.3465 195.98798 302.1785 205.77998 300.7385 210.57998 L 295.9385 226.13198 C 295.7465 226.51598 296.1305 226.89998 296.7065 226.89998 Z" fill="#212983"/><path d="M 356.3225 216.33998 C 356.1305 216.14798 355.7465 216.33998 355.5545 216.53198 C 353.4425 219.41198 349.6025 222.29198 345.1865 222.29198 C 342.4985 222.29198 340.0025 219.98798 340.0025 216.14798 C 340.0025 212.69198 340.5785 210.00398 340.9625 209.04398 C 344.6105 208.85198 349.7945 207.69998 354.9785 205.01198 C 360.5465 201.93998 363.8105 197.52398 363.8105 192.62798 C 363.8105 189.84398 361.5065 186.96398 357.0905 186.96398 C 351.9065 186.96398 346.5305 189.45998 342.6905 192.91598 C 334.8185 200.01998 330.7865 210.19598 330.7865 217.68398 C 330.7865 224.40398 334.6265 227.85998 340.9625 227.85998 C 349.4105 227.85998 355.9385 221.71598 358.0505 218.25998 C 358.2425 217.87598 358.2425 217.68398 357.7625 217.39598 Z M 352.4825 191.57198 C 354.5945 191.57198 355.3625 193.29998 355.3625 195.02798 C 355.3625 197.71598 353.4425 200.59598 351.3305 202.32398 C 348.0665 204.81998 343.4585 205.97198 341.7305 205.97198 C 342.8825 200.78798 347.6825 191.57198 352.4825 191.57198 Z" fill="#212983"/></g></svg>